<?xml version="1.0" encoding="UTF-8"?>
<svg width="1003px" height="253px" viewBox="0 0 1003 253" version="1.1" xmlns="http://www.w3.org/2000/svg" xmlns:xlink="http://www.w3.org/1999/xlink">
    <!-- Generator: Sketch 63 (92445) - https://sketch.com -->
    <title>mdpi/编组 27备份 3</title>
    <desc>Created with Sketch.</desc>
    <defs>
        <filter x="-47.4%" y="-26.5%" width="194.7%" height="152.9%" filterUnits="objectBoundingBox" id="filter-1">
            <feGaussianBlur stdDeviation="1.54143356 14.6657607" in="SourceGraphic"></feGaussianBlur>
        </filter>
        <filter x="-73.9%" y="-92.7%" width="247.7%" height="285.5%" filterUnits="objectBoundingBox" id="filter-2">
            <feGaussianBlur stdDeviation="1.54143356 14.6657607" in="SourceGraphic"></feGaussianBlur>
        </filter>
        <filter x="-27.4%" y="-31.0%" width="154.7%" height="162.0%" filterUnits="objectBoundingBox" id="filter-3">
            <feGaussianBlur stdDeviation="1.54143356 14.6657607" in="SourceGraphic"></feGaussianBlur>
        </filter>
    </defs>
    <g id="页面-1" stroke="none" stroke-width="1" fill="none" fill-rule="evenodd">
        <g id="编组-27备份-3" transform="translate(4.000000, 33.000000)" fill-rule="nonzero">
            <path d="M316.374304,69.124424 C321.247305,69.124424 325.3683,67.4399297 328.737289,64.0709413 C332.106277,60.7019528 333.790771,56.580958 333.790771,51.7079568 C333.790771,46.7747952 332.136357,42.6838806 328.827529,39.4352131 C325.518702,36.1865457 321.367626,34.562212 316.374304,34.562212 C311.621624,34.562212 307.57583,36.2467062 304.236922,39.6156947 C300.898014,42.9846831 299.228559,47.0154372 299.228559,51.7079568 C299.228559,56.5207975 300.898014,60.6267522 304.236922,64.0258209 C307.57583,67.4248896 311.621624,69.124424 316.374304,69.124424 Z M311.568791,150.104373 L329.182476,78.3410138 L329.182476,78.3410138 L313.868231,78.3410138 C304.311987,78.3410138 295.99306,84.8714128 293.723973,94.1543569 L276.187085,165.898618 L276.187085,165.898618 L291.429211,165.898618 C300.978119,165.898618 309.292652,159.378036 311.568791,150.104373 Z M367.035931,151.637136 L376.042472,124.238216 L376.042472,124.238216 C377.386808,115.570022 379.593274,109.260521 382.661868,105.309711 C385.730462,101.358902 389.982656,99.3834968 395.418452,99.3834968 C399.393012,99.3834968 402.403156,100.385941 404.448886,102.390829 C406.494615,104.395718 407.51748,107.344083 407.51748,111.235925 C407.51748,112.179402 407.444418,113.299781 407.298295,114.597062 C407.152171,115.894342 406.96221,117.221107 406.728413,118.577355 L391.981765,165.898618 L423.281424,165.898618 L438.028072,119.01961 C438.086522,118.606838 438.144971,118.076133 438.203421,117.427492 C439.25551,110.292448 439.781555,105.191776 439.781555,102.125477 C439.781555,93.1624461 437.253618,86.1895622 432.197744,81.2068249 C427.14187,76.2240876 420.025654,73.7327189 410.849096,73.7327189 C405.179503,73.7327189 399.948281,75.0594833 395.155429,77.713012 C390.362578,80.3665408 385.540501,84.6416704 380.6892,90.538401 L382.881053,76.5631496 L369.2512,76.5631496 C359.660008,76.5631496 351.320219,83.1404053 349.084918,92.4674838 L331.486624,165.898618 L331.486624,165.898618 L347.335673,165.898618 C356.293403,165.898618 364.238614,160.146892 367.035931,151.637136 Z M484.794888,150.886388 L496.811877,109.050389 L496.811877,109.050389 L524.955394,165.898618 L565.17185,165.898618 L529.228798,100.589257 L591.855288,36.8663594 L547.903826,36.8663594 L499.522474,90.8060739 L512.524228,36.8663594 L494.72431,36.8663594 C485.181681,36.8663594 476.870911,43.3785448 474.588749,52.6442616 L446.693997,165.898618 L446.693997,165.898618 L464.863506,165.898618 C474.111474,165.898618 482.241737,159.774939 484.794888,150.886388 Z" id="inK" fill="#50E3C2"></path>
            <path d="M603.76384,165.898618 L617.467217,118.780602 C618.052255,116.530458 618.626041,114.100302 619.188577,111.490135 C619.751113,108.879968 620.279897,106.112291 620.774929,103.187104 C621.089949,105.662262 621.438721,108.12617 621.821246,110.578827 C622.20377,113.031484 622.642548,115.47289 623.13758,117.903046 L623.13758,117.903046 L632.385672,165.898618 L648.384196,165.898618 L670.930639,117.835541 C671.155653,117.34051 671.493175,116.597962 671.943204,115.607899 C674.328356,110.612579 676.015964,106.449813 677.006028,103.1196 C676.826016,105.729767 676.691008,108.328683 676.601002,110.916349 C676.510996,113.504014 676.465993,116.125432 676.465993,118.780602 L676.465993,118.780602 L676.73601,165.898618 L701.10507,165.898618 L698.742419,67.0722926 L669.580553,67.0722926 L651.894421,105.887277 C650.364323,109.307496 649.182997,112.153928 648.350444,114.426573 C647.51789,116.699219 646.854098,118.825605 646.359066,120.805732 C646.044046,118.015553 645.717775,115.326631 645.380254,112.738965 C645.042732,110.1513 644.671458,107.687392 644.266432,105.347242 L644.266432,105.347242 L637.651009,67.0722926 L608.28663,67.0722926 L578.044694,165.898618 L603.76384,165.898618 Z" id="路径" fill="#00152A"></path>
            <path d="M747.524325,95.5591158 C758.054999,95.5591158 766.526791,98.7768217 772.939701,105.212234 C779.352612,111.647645 782.559067,120.175691 782.559067,130.796371 C782.559067,131.741431 782.424058,133.451541 782.154041,135.926699 C782.064035,136.691748 781.996531,137.231783 781.951528,137.546803 L781.951528,137.546803 L730.850758,137.546803 L730.850758,139.099402 L730.854691,139.542635 C730.928108,143.645014 732.029368,146.78248 734.158469,148.955033 C736.36361,151.205177 739.581316,152.330249 743.811587,152.330249 C746.781777,152.330249 749.583206,151.71146 752.215875,150.47388 C754.848543,149.236301 757.672474,147.244924 760.687667,144.499748 L760.687667,144.499748 L773.648497,157.595586 L773.16161,158.052061 C769.405002,161.51486 765.100762,164.130379 760.248889,165.898618 C755.186065,167.743736 749.526953,168.666295 743.271553,168.666295 C732.155841,168.666295 723.526539,165.707355 717.383646,159.789477 C711.240753,153.871598 708.169306,145.579817 708.169306,134.914135 C708.169306,123.258389 711.82579,113.785282 719.138758,106.494816 C726.451726,99.2043491 735.913582,95.5591158 747.524325,95.5591158 Z M747.389316,111.692648 C744.059103,111.692648 741.077662,112.750216 738.444994,114.865351 C735.812325,116.980487 733.820948,119.928175 732.470861,123.708417 L732.470861,123.708417 L760.012624,123.708417 C759.78761,120.018181 758.55003,117.092994 756.299886,114.932856 C754.049742,112.772717 751.079552,111.692648 747.389316,111.692648 Z" id="形状结合" fill="#00152A"></path>
            <path d="M876.703876,61.2669211 L860.232822,165.898618 L837.55137,165.898618 L838.968961,157.055552 L838.526865,157.549201 C835.27126,161.13046 831.717138,163.857346 827.8645,165.729857 C823.836742,167.687482 819.505215,168.666295 814.869919,168.666295 C807.039417,168.666295 800.615256,165.707355 795.597435,159.789477 C790.579614,153.871598 788.070703,146.232359 788.070703,136.87176 C788.070703,125.081005 791.45717,115.31538 798.230104,107.574885 C805.003037,99.8343894 813.497331,95.9641417 823.712985,95.9641417 C828.303278,95.9641417 832.454794,96.9204529 836.167532,98.8330753 C839.880269,100.745698 843.379243,103.74964 846.664453,107.844902 L846.664453,107.844902 L846.664453,105.887277 L846.672554,105.070475 C846.694155,103.972404 846.758959,102.838332 846.866966,101.668257 C847.001975,100.205663 847.181987,98.7093174 847.407001,97.1792195 L847.407001,97.1792195 L853.077364,61.2669211 L876.703876,61.2669211 Z M829.720869,114.595334 C824.815555,114.595334 820.776547,116.4067 817.603844,120.029432 C814.431141,123.652164 812.844789,128.253708 812.844789,133.834065 C812.844789,138.199345 814.172374,141.709569 816.827544,144.364739 C819.482714,147.019909 822.992938,148.347494 827.358218,148.347494 C832.128523,148.347494 836.111278,146.491125 839.306483,142.778388 C842.501687,139.06565 844.099289,134.419103 844.099289,128.838746 C844.099289,124.608475 842.760454,121.177005 840.082782,118.544337 C837.405111,115.911668 833.95114,114.595334 829.720869,114.595334 Z" id="形状结合" fill="#00152A"></path>
            <path d="M900.576688,90.4287874 C904.221921,90.4287874 907.304618,89.1687068 909.824779,86.6485455 C912.344941,84.1283842 913.605021,81.0456869 913.605021,77.4004536 C913.605021,73.7102175 912.367442,70.6500216 909.892284,68.2198661 C907.417125,65.7897105 904.311927,64.5746328 900.576688,64.5746328 C897.02146,64.5746328 893.995016,65.8347134 891.497357,68.3548747 C888.999697,70.875036 887.750867,73.890229 887.750867,77.4004536 C887.750867,81.000684 888.999697,84.0721306 891.497357,86.6147933 C893.995016,89.1574561 897.02146,90.4287874 900.576688,90.4287874 Z" id="路径" fill="#1D85FF"></path>
            <polygon id="路径" fill="#00152A" points="899.36161 165.898618 910.162301 97.719254 885.92825 97.719254 875.195063 165.898618"></polygon>
            <path d="M951.586236,95.5591158 C956.311538,95.5591158 960.541809,96.5379284 964.277048,98.4955537 C968.012287,100.453179 971.387503,103.479623 974.402696,107.574885 L974.402696,107.574885 L975.955296,97.719254 L998.771756,97.719254 L987.971065,165.898618 L965.55963,165.898618 L966.707204,156.785534 L966.276593,157.279184 C963.103337,160.860443 959.59039,163.587328 955.737752,165.459839 C951.709994,167.417465 947.378467,168.396277 942.74317,168.396277 C934.912669,168.396277 928.488508,165.448589 923.470687,159.553211 C918.452865,153.657834 915.943955,146.007344 915.943955,136.601743 C915.943955,124.810988 919.341672,115.022861 926.137107,107.237363 C932.932542,99.4518649 941.415585,95.5591158 951.586236,95.5591158 Z M956.986582,115.00036 C952.126271,115.00036 948.109764,116.822977 944.93706,120.46821 C941.764357,124.113443 940.178006,128.703737 940.178006,134.239091 C940.178006,138.604371 941.505591,142.114595 944.160761,144.769765 C946.815931,147.424935 950.326155,148.75252 954.691435,148.75252 C959.46174,148.75252 963.433244,146.896151 966.605947,143.183414 C969.77865,139.470676 971.365002,134.824129 971.365002,129.243772 C971.365002,125.013501 970.037417,121.582031 967.382247,118.949363 C964.727077,116.316694 961.261855,115.00036 956.986582,115.00036 Z" id="形状结合" fill="#00152A"></path>
            <path d="M240.413199,9.83102919 L225.505422,63.6620292 L194.791484,72.2413338 C191.543011,73.1486084 188.585088,74.8755057 186.199944,77.2529444 L185.878274,77.581157 C178.368579,85.4248524 178.63934,97.8712344 186.483036,105.380929 L186.483036,105.380929 L208.196422,126.170029 L194.133189,176.958525 L147.018422,176.958525 L193.298431,9.83102919 L240.413199,9.83102919 Z" id="形状结合备份-7" fill="#0054FF" opacity="0.3" filter="url(#filter-1)"></path>
            <polygon id="形状结合备份-12" fill="#0054FF" opacity="0.3" filter="url(#filter-2)" points="247.128581 176.958525 259.901439 130.832872 213.225509 129.24813 200.013813 176.958525"></polygon>
            <path d="M245.328713,-5.4027443e-13 L231.318451,53.403 L200.845449,62.3875884 C197.88352,63.2607914 195.171144,64.8186587 192.926317,66.9324634 L192.575788,67.2708233 C184.856872,74.908717 184.791191,87.3578706 192.429085,95.0767859 L192.429085,95.0767859 L214.526451,117.409 L205.544247,151.652334 C203.184197,160.648485 195.130629,166.957474 185.862081,167.124114 L185.485674,167.127496 L156.849451,167.127496 L196.633917,15.475162 C199.025859,6.35744184 207.266239,-5.34990143e-13 216.69249,-5.4027443e-13 L216.69249,-5.4027443e-13 L245.328713,-5.4027443e-13 Z" id="形状结合备份-8" fill="#4792F4"></path>
            <path d="M150.788127,29.9539171 C151.758892,29.9539171 152.725356,30.0828708 153.662161,30.3373949 C159.504344,31.9246802 162.953621,37.9474546 161.366336,43.789638 L161.366336,43.789638 L130.08707,158.916523 C127.868134,167.083568 120.453814,172.752243 111.9907,172.752243 C111.019935,172.752243 110.053471,172.62329 109.116666,172.368766 C103.274483,170.78148 99.8252062,164.758706 101.412492,158.916523 L101.412492,158.916523 L132.691757,43.789638 C134.910693,35.622593 142.325013,29.9539171 150.788127,29.9539171 Z M94.76482,55.4570086 C95.774353,55.4570086 96.7788947,55.5986308 97.7490791,55.877735 C103.478193,57.5258957 106.786459,63.5063584 105.138298,69.2354723 L105.138298,69.2354723 L79.4641508,158.480478 C77.1170284,166.639228 69.6527027,172.258942 61.163051,172.258942 C60.1535181,172.258942 59.1489763,172.11732 58.178792,171.838215 C52.4496781,170.190055 49.1414119,164.209592 50.7895727,158.480478 L50.7895727,158.480478 L76.4637202,69.2354723 C78.8108426,61.0767223 86.2751683,55.4570086 94.76482,55.4570086 Z M39.4561269,81.5848028 C40.5379478,81.5848028 41.6132324,81.752483 42.6436883,82.081872 C48.1510288,83.8423135 51.1884905,89.734015 49.428049,95.2413555 L49.428049,95.2413555 L29.1744629,158.602389 C26.5739605,166.737764 19.0127046,172.258942 10.4718068,172.258942 C9.38998588,172.258942 8.3147013,172.091262 7.28424541,171.761873 C1.77690491,170.001431 -1.26055686,164.10973 0.499884677,158.602389 L0.499884677,158.602389 L20.7534708,95.2413555 C23.3539731,87.1059806 30.9152291,81.5848028 39.4561269,81.5848028 Z" id="形状结合" fill="#0054FF" opacity="0.3" filter="url(#filter-3)"></path>
            <path d="M137.316457,153.007644 L168.595723,37.8807598 C170.183008,32.0385764 166.733731,26.015802 160.891548,24.4285167 C159.954743,24.1739927 158.988279,24.0450389 158.017514,24.0450389 C149.5544,24.0450389 142.14008,29.7137148 139.921144,37.8807598 L108.641878,153.007644 C107.054593,158.849828 110.50387,164.872602 116.346053,166.459887 C117.282858,166.714412 118.249322,166.843365 119.220087,166.843365 C127.683201,166.843365 135.097521,161.174689 137.316457,153.007644 Z" id="形状结合备份-13" fill="#4792F4"></path>
            <path d="M86.6935378,152.5716 L112.367685,63.3265942 C114.015846,57.5974803 110.70758,51.6170175 104.978466,49.9688568 C104.008282,49.6897526 103.00374,49.5481304 101.994207,49.5481304 C93.5045553,49.5481304 86.0402296,55.1678441 83.6931072,63.3265942 L58.0189596,152.5716 C56.3707989,158.300714 59.6790651,164.281176 65.408179,165.929337 C66.3783633,166.208441 67.3829051,166.350064 68.392438,166.350064 C76.8820897,166.350064 84.3464154,160.73035 86.6935378,152.5716 Z" id="形状结合备份-14" fill="#4792F4"></path>
            <path d="M36.4038498,152.693511 L56.657436,89.3324773 C58.4178775,83.8251368 55.3804157,77.9334354 49.8730752,76.1729938 C48.8426194,75.8436048 47.7673348,75.6759247 46.6855139,75.6759247 C38.1446161,75.6759247 30.5833601,81.1971025 27.9828578,89.3324773 L7.72927167,152.693511 C5.96883014,158.200851 9.0062919,164.092553 14.5136324,165.852994 C15.5440883,166.182383 16.6193729,166.350064 17.7011938,166.350064 C26.2420916,166.350064 33.8033475,160.828886 36.4038498,152.693511 Z" id="形状结合备份-15" fill="#4792F4"></path>
            <path d="M260.083422,137.01966 L268.354389,170.262188 L268.354389,170.262188 L239.929318,170.262188 C230.404944,170.262188 222.105137,163.774388 219.805518,154.531799 L211.534551,121.289271 L211.534551,121.289271 L239.959622,121.289271 C249.483996,121.289271 257.783803,127.777071 260.083422,137.01966 Z" id="形状结合备份-11" fill="#4792F4" transform="translate(239.944470, 145.775730) rotate(-255.000000) translate(-239.944470, -145.775730) "></path>
            <path d="M211.255232,72.4912611 L237.560792,65.0090209 C244.310255,63.0892328 251.338071,67.0044575 253.257859,73.7539201 C253.868394,75.9003974 253.902818,78.1698177 253.357666,80.3338251 L246.730839,106.639385 C245.016646,113.44397 238.110812,117.570548 231.306227,115.856354 C229.173538,115.319093 227.216829,114.237442 225.627515,112.717214 L205.948782,93.8938938 C200.877897,89.0434345 200.699207,81.0005957 205.549666,75.9297107 C207.111865,74.2965186 209.081417,73.1095719 211.255232,72.4912611 Z" id="三角形备份-2" fill="#50E3C2"></path>
        </g>
    </g>
</svg>